<svg width="354" height="387" viewBox="0 0 354 387" fill="none" xmlns="http://www.w3.org/2000/svg">
<g clip-path="url(#clip0_15501_5644)">
<mask id="mask0_15501_5644" style="mask-type:luminance" maskUnits="userSpaceOnUse" x="0" y="0" width="354" height="387">
<path d="M354 0H0V387H354V0Z" fill="white"/>
</mask>
<g mask="url(#mask0_15501_5644)">
<path d="M84.1488 278.109C54.5272 249.317 71.0845 194.707 41.9828 202.816C12.2357 211.104 -21.7395 351.821 18.2102 372.787C36.5498 382.412 86.5049 379.943 51.9954 307.714C51.8986 307.513 52.1675 307.359 52.311 307.531C111.396 378.707 118.856 281.068 119.63 288.565C135.23 439.269 217.536 379.427 193.785 351.327C130.206 276.106 176.564 196.473 147.911 179.119C106.996 154.34 98.3141 249.736 84.1524 278.109H84.1488Z" fill="#F95F2E"/>
<path d="M333.336 25.9943C321.362 13.2341 303.209 7.85908 285.96 10.844C245.519 17.8386 256.736 63.8451 228.463 72.592C153.609 95.7475 144.697 180.146 196.75 193.293C305.454 220.745 396.237 93.0313 333.34 25.9943H333.336ZM223.396 152.225C197.79 149.229 207.566 112.546 245.483 109.103C290.822 104.986 276.532 62.1322 295.04 64.0851C296.854 64.2751 298.673 64.8412 300.118 65.9521C319.788 81.0952 288.728 159.871 223.396 152.225Z" fill="#F95F2E"/>
<path d="M165.006 94.8796C168.894 89.7698 173.276 85.0326 178.081 80.6896C179.071 79.7938 178.422 78.1562 177.088 78.1777L91.3503 79.4784C90.4573 79.4928 89.7652 78.708 89.8943 77.8265C90.4286 74.0748 91.5439 64.561 90.7873 54.7713C90.7227 53.94 91.3539 53.2198 92.1894 53.2018C101.976 52.9761 157.314 51.7506 221.779 51.3708C225.903 51.3457 229.661 48.9556 231.382 45.211C232.279 43.2653 233.24 41.0113 234.323 38.417C238.264 28.9642 243.421 16.6232 253.789 7.04489C256.521 4.51864 254.804 -0.0178638 251.088 5.2912e-05L51.067 0.956803C33.9539 1.07147 21.0079 10.6354 21.2876 27.7351C22.2774 88.7808 27.5598 115.713 9.69356 201.871C9.37439 203.419 11.4257 204.3 12.3079 202.989C19.6846 192.002 27.8072 185.344 36.8443 182.825C49.1735 179.392 57.9811 182.514 63.199 185.735C71.0419 190.58 75.2592 197.965 77.9954 206.264C78.4867 207.754 80.6492 207.532 80.8213 205.974C89.5751 125.273 77.9524 122.041 149.869 120.862C150.468 120.852 150.999 120.475 151.207 119.916C154.431 111.162 159.064 102.691 165.01 94.8724L165.006 94.8796Z" fill="#F95F2E"/>
<path d="M303.105 196.912C279.548 210.54 236.152 229.123 179.117 208.064C160.52 252.665 192.756 375.316 279.408 378.469C412.081 383.296 316.679 189.061 303.105 196.916V196.912ZM242.435 302.846C228.187 277.38 231.529 247.939 257.034 250.304C271.149 251.612 288.614 261.617 296.998 283.65C310.27 318.52 267.032 346.814 242.435 302.846Z" fill="#F95F2E"/>
</g>
</g>
<defs>
<clipPath id="clip0_15501_5644">
<rect width="354" height="387" fill="white"/>
</clipPath>
</defs>
</svg>
