<svg width="1363" height="989" viewBox="0 0 1363 989" fill="none" xmlns="http://www.w3.org/2000/svg">
<path d="M647.013 397.712L618.809 578.383L724.573 517.377L835.037 604.193L1212.26 0L647.013 397.712Z" fill="white"/>
<path d="M936.1 685.143L842.088 610.059L1220.49 2.34638L1172.31 471.623H1128.82L1088.87 499.779L936.1 685.143Z" fill="white"/>
<path d="M1131.17 481.008L1101.8 500.953L1362.68 577.21L1174.66 481.008H1131.17Z" fill="white"/>
<path d="M1117.07 552.573L1128.82 517.377L1339.18 578.383L1117.07 552.573Z" fill="white"/>
<path d="M1153.5 564.305L1114.72 560.785L976.055 986.654L1040.69 929.167L1153.5 564.305Z" fill="white"/>
<path d="M1093.57 507.992L898.495 742.63L969.004 827.1L973.705 964.363L1120.6 515.031L1093.57 507.992Z" fill="white"/>
<path d="M893.794 735.591L735.149 534.975L930.224 691.009L893.794 735.591Z" fill="white"/>
<path d="M669.979 716.82L722.222 534.975L956.498 829.446L669.979 716.82Z" fill="white"/>
<path d="M709.296 534.975L504.819 652.294L662.29 712.127L709.296 534.975Z" fill="white"/>
<path d="M959.603 840.005L811.534 903.357L796.257 905.703L965.479 986.654L959.603 840.005Z" fill="white"/>
<path d="M950.202 834.139L665.815 723.859L14.7815 989L806.833 895.145L950.202 834.139Z" fill="white"/>
<path d="M321.496 654.641L0.679688 985.48L654.064 720.339L493.068 658.16L321.496 654.641Z" fill="white"/>
<path d="M327.372 645.255L78.2397 227.599L481.316 647.601L327.372 645.255Z" fill="white"/>
<path d="M544.775 617.098L115.844 253.409L493.068 647.601L544.775 617.098Z" fill="white"/>
</svg>
