<svg width="1096" height="205" viewBox="0 0 1096 205" fill="none" xmlns="http://www.w3.org/2000/svg">
<path d="M930.141 169.292C922.672 169.292 915.939 168.027 909.941 165.496C904.056 162.966 899.416 159.471 896.021 155.013C892.626 150.433 890.929 145.192 890.929 139.287C890.929 138.443 891.042 136.937 891.268 134.768H919.277C919.051 138.504 920.069 141.516 922.333 143.806C924.709 145.975 928.047 147.059 932.348 147.059C935.969 147.059 938.968 146.336 941.345 144.89C943.721 143.444 944.909 141.396 944.909 138.745C944.909 136.214 943.608 134.226 941.005 132.78C938.515 131.213 934.328 129.345 928.444 127.176C922.333 125.007 917.183 122.898 912.996 120.85C908.922 118.681 905.414 115.608 902.472 111.631C899.529 107.655 898.058 102.654 898.058 96.6288C898.058 90.7242 899.699 85.4221 902.981 80.7224C906.263 75.9023 910.846 72.1667 916.731 69.5157C922.729 66.8646 929.632 65.5391 937.44 65.5391C945.249 65.5391 952.039 66.9248 957.81 69.6964C963.582 72.3475 968.052 76.0831 971.221 80.9032C974.389 85.7233 975.974 91.1459 975.974 97.1711L975.804 99.8824H949.493C949.719 96.2673 948.701 93.3752 946.437 91.2062C944.174 89.0371 940.949 87.9526 936.761 87.9526C933.479 87.9526 930.764 88.6756 928.613 90.1217C926.576 91.5677 925.558 93.556 925.558 96.0866C925.558 98.7376 926.916 100.967 929.632 102.774C932.461 104.462 936.818 106.39 942.703 108.559C948.814 110.728 953.85 112.897 957.81 115.066C961.884 117.114 965.336 120.067 968.165 123.923C971.108 127.658 972.579 132.358 972.579 138.022C972.579 144.529 970.711 150.132 966.977 154.832C963.356 159.531 958.32 163.146 951.869 165.677C945.532 168.087 938.289 169.292 930.141 169.292Z" fill="white"/>
<path d="M818.837 81.2628C822.458 76.5632 827.042 72.7674 832.587 69.8753C838.132 66.9832 844.187 65.5372 850.75 65.5372C860.935 65.5372 869.14 69.092 875.364 76.2017C881.701 83.1909 884.87 92.7709 884.87 104.942C884.87 108.798 884.531 112.895 883.852 117.233C882.154 127.596 878.816 136.754 873.836 144.708C868.857 152.54 862.859 158.626 855.843 162.964C848.826 167.181 841.414 169.29 833.605 169.29C826.929 169.29 821.327 167.904 816.8 165.133C812.273 162.241 808.992 158.445 806.955 153.745L804.578 167.844H775.551L797.788 34.0859H826.815L818.837 81.2628ZM854.485 117.233C854.824 115.184 854.994 113.317 854.994 111.63C854.994 105.604 853.353 100.905 850.071 97.5307C846.903 94.1567 842.829 92.4696 837.849 92.4696C832.078 92.4696 826.815 94.6989 822.062 99.1575C817.309 103.616 814.254 109.702 812.896 117.414C812.556 119.583 812.387 121.571 812.387 123.379C812.387 129.283 813.971 133.923 817.14 137.297C820.308 140.671 824.382 142.358 829.362 142.358C835.133 142.358 840.395 140.129 845.148 135.67C850.015 131.091 853.127 124.945 854.485 117.233Z" fill="white"/>
<path d="M663.054 117.235C664.751 106.872 668.09 97.7736 673.069 89.9409C678.048 82.1082 684.046 76.0831 691.062 71.8655C698.079 67.6479 705.491 65.5391 713.3 65.5391C719.977 65.5391 725.578 66.9851 730.105 69.8772C734.632 72.7692 737.914 76.5651 739.951 81.2647L742.327 66.9851H771.354L754.549 167.846H725.522L728.068 153.566C724.447 158.266 719.863 162.062 714.318 164.954C708.773 167.846 702.662 169.292 695.985 169.292C689.308 169.292 683.367 167.665 678.161 164.412C673.069 161.158 669.108 156.579 666.279 150.674C663.45 144.649 662.035 137.6 662.035 129.526C662.035 125.67 662.375 121.573 663.054 117.235ZM734.009 117.416C734.349 115.247 734.519 113.258 734.519 111.451C734.519 105.546 732.878 100.907 729.596 97.5326C726.427 94.1585 722.353 92.4715 717.374 92.4715C711.602 92.4715 706.34 94.7008 701.587 99.1594C696.834 103.497 693.835 109.523 692.59 117.235C692.251 119.404 692.081 121.392 692.081 123.2C692.081 129.104 693.665 133.804 696.834 137.299C700.116 140.673 704.19 142.36 709.056 142.36C714.828 142.36 720.09 140.13 724.843 135.672C729.596 131.213 732.651 125.128 734.009 117.416Z" fill="white"/>
<path d="M612.369 144.345H650.393L646.489 167.843H579.438L600.487 40.9531H629.514L612.369 144.345Z" fill="white"/>
<path d="M542.764 84.8791C545.48 79.2154 549.327 74.8171 554.307 71.684C559.399 68.5509 565.567 66.9844 572.81 66.9844V83.9753H568.736C551.421 83.9753 542.764 93.977 542.764 113.981V167.845H527.316V68.7919H542.764V84.8791Z" fill="white"/>
<path d="M506.931 114.522C506.931 117.655 506.761 120.969 506.422 124.463H432.071C432.637 134.224 435.749 141.876 441.407 147.419C447.179 152.842 454.139 155.553 462.287 155.553C468.963 155.553 474.509 153.926 478.922 150.673C483.449 147.299 486.617 142.84 488.428 137.297H505.064C502.574 146.817 497.595 154.589 490.126 160.614C482.657 166.519 473.377 169.471 462.287 169.471C453.46 169.471 445.538 167.362 438.522 163.145C431.618 158.927 426.186 152.962 422.225 145.25C418.265 137.417 416.284 128.38 416.284 118.137C416.284 107.894 418.208 98.9166 422.056 91.2044C425.903 83.4922 431.279 77.5876 438.182 73.4905C445.198 69.2729 453.233 67.1641 462.287 67.1641C471.114 67.1641 478.922 69.2126 485.712 73.3097C492.502 77.4068 497.708 83.0704 501.329 90.3006C505.064 97.4103 506.931 105.484 506.931 114.522ZM490.974 111.087C490.974 104.821 489.673 99.4589 487.07 95.0002C484.467 90.4211 480.903 86.9868 476.376 84.6972C471.962 82.2872 467.04 81.0822 461.608 81.0822C453.799 81.0822 447.122 83.7332 441.577 89.0354C436.145 94.3375 433.033 101.688 432.241 111.087H490.974Z" fill="white"/>
<path d="M301.568 117.956C301.568 107.834 303.492 98.9768 307.34 91.3851C311.188 83.6729 316.45 77.708 323.127 73.4904C329.917 69.2728 337.499 67.164 345.873 67.164C353.116 67.164 359.849 68.9715 366.074 72.5866C372.298 76.0812 377.051 80.7206 380.333 86.5047V34.0859H395.95V167.844H380.333V149.226C377.277 155.131 372.75 160.012 366.753 163.868C360.755 167.603 353.738 169.471 345.704 169.471C337.442 169.471 329.917 167.302 323.127 162.964C316.45 158.626 311.188 152.54 307.34 144.708C303.492 136.875 301.568 127.958 301.568 117.956ZM380.333 118.137C380.333 110.666 378.918 104.158 376.089 98.6153C373.26 93.0721 369.412 88.8545 364.546 85.9625C359.793 82.9499 354.531 81.4436 348.759 81.4436C342.987 81.4436 337.725 82.8896 332.972 85.7817C328.219 88.6738 324.428 92.8914 321.599 98.4345C318.77 103.978 317.355 110.485 317.355 117.956C317.355 125.548 318.77 132.175 321.599 137.839C324.428 143.382 328.219 147.66 332.972 150.673C337.725 153.565 342.987 155.011 348.759 155.011C354.531 155.011 359.793 153.565 364.546 150.673C369.412 147.66 373.26 143.382 376.089 137.839C378.918 132.175 380.333 125.608 380.333 118.137Z" fill="white"/>
<path d="M239.331 169.471C230.617 169.471 222.696 167.362 215.566 163.145C208.55 158.927 203.005 152.962 198.931 145.25C194.97 137.417 192.989 128.38 192.989 118.137C192.989 108.015 195.026 99.0973 199.1 91.3852C203.287 83.5525 208.946 77.5876 216.075 73.4905C223.205 69.2729 231.183 67.1641 240.01 67.1641C248.837 67.1641 256.815 69.2729 263.945 73.4905C271.074 77.5876 276.676 83.4922 280.75 91.2044C284.937 98.9166 287.031 107.894 287.031 118.137C287.031 128.38 284.881 137.417 280.581 145.25C276.393 152.962 270.678 158.927 263.436 163.145C256.193 167.362 248.158 169.471 239.331 169.471ZM239.331 155.011C244.876 155.011 250.082 153.625 254.948 150.853C259.814 148.082 263.719 143.924 266.661 138.381C269.716 132.838 271.244 126.09 271.244 118.137C271.244 110.184 269.773 103.435 266.831 97.8923C263.888 92.3492 260.041 88.2521 255.288 85.601C250.535 82.8295 245.386 81.4437 239.84 81.4437C234.182 81.4437 228.976 82.8295 224.223 85.601C219.584 88.2521 215.849 92.3492 213.02 97.8923C210.191 103.435 208.776 110.184 208.776 118.137C208.776 126.211 210.134 133.019 212.85 138.562C215.679 144.105 219.414 148.263 224.054 151.034C228.693 153.685 233.786 155.011 239.331 155.011Z" fill="white"/>
<path d="M61.8643 104.764C61.8643 92.4724 64.4671 81.4464 69.6728 71.6857C74.8785 61.8044 81.9514 54.0922 90.8916 48.5491C99.9449 43.0059 109.96 40.2344 120.937 40.2344C133.838 40.2344 145.099 43.5482 154.718 50.1759C164.337 56.8035 171.353 66.2028 175.767 78.3736H157.264C153.982 70.7819 149.229 64.9375 143.005 60.8404C136.894 56.7433 129.538 54.6947 120.937 54.6947C112.676 54.6947 105.264 56.7433 98.7001 60.8404C92.1364 64.9375 86.9873 70.7819 83.2528 78.3736C79.5183 85.8447 77.6511 94.6415 77.6511 104.764C77.6511 114.765 79.5183 123.562 83.2528 131.154C86.9873 138.625 92.1364 144.409 98.7001 148.506C105.264 152.603 112.676 154.652 120.937 154.652C129.538 154.652 136.894 152.664 143.005 148.687C149.229 144.59 153.982 138.746 157.264 131.154H175.767C171.353 143.204 164.337 152.543 154.718 159.171C145.099 165.678 133.838 168.932 120.937 168.932C109.96 168.932 99.9449 166.22 90.8916 160.798C81.9514 155.254 74.8785 147.603 69.6728 137.842C64.4671 128.081 61.8643 117.055 61.8643 104.764Z" fill="white"/>
<path d="M16.7885 17.8845C16.7885 7.45066 23.7837 0 33.577 0H51.7646C53.3099 0 54.5627 1.33468 54.5627 2.9811V13.4129C54.5627 15.0593 53.3099 16.394 51.7646 16.394H39.1732C34.9761 16.394 33.577 17.8845 33.577 22.3562V83.8494C33.577 93.7789 27.2418 100.334 18.1886 100.944C17.4175 100.996 16.7885 101.658 16.7885 102.481C16.7885 103.304 17.4175 103.967 18.1886 104.019C27.2418 104.629 33.577 111.184 33.577 121.113V182.606C33.577 187.078 34.4929 188.569 39.1732 188.569H51.7646C53.3099 188.569 54.5627 189.903 54.5627 191.55V201.981C54.5627 203.628 53.3099 204.963 51.7646 204.963H33.577C23.7837 204.965 16.7885 197.512 16.7885 186.939V121.113C16.7885 116.642 15.3895 115.151 11.1923 115.151H2.79808C1.25275 115.151 0 113.816 0 112.17V92.7927C0 91.1463 1.25275 89.8116 2.79808 89.8116H11.1923C15.3895 89.8116 16.7885 88.3211 16.7885 83.8494V17.8845Z" fill="#F49525"/>
<rect x="1009.41" y="158.16" width="86.3909" height="16.1388" rx="2" fill="#F49525"/>
</svg>
