<svg width="1200" height="300" viewBox="0 0 1200 300" fill="none" xmlns="http://www.w3.org/2000/svg">
<path d="M114.667 190.562V223.317L91.334 233.905C91.433 233.509 91.466 233.069 91.466 232.639V210.638L114.667 190.562Z" fill="#3305C4" stroke="black"/>
<path d="M153.112 123.424V217.252L146.816 214.391C142.821 212.597 138.264 212.597 134.269 214.391L127.974 217.252V123.424L140.554 99.0566L153.101 123.424H153.112Z" fill="#3305C4" stroke="black"/>
<path d="M189.796 233.905L166.43 223.317V190.562L189.664 210.638V232.639C189.664 233.069 189.697 233.509 189.796 233.905Z" fill="#3305C4" stroke="black"/>
<path d="M255.701 263.863L199.646 238.395C201.639 237.228 202.97 235.104 202.97 232.639V207.611C202.97 205.685 202.101 203.847 200.637 202.581L166.419 172.952V121.828C166.419 120.761 166.155 119.737 165.681 118.768L146.442 81.4573C145.309 79.2561 143.019 77.8583 140.554 77.8583C138.089 77.8583 135.766 79.2561 134.633 81.4573L115.394 118.768C114.932 119.737 114.656 120.761 114.656 121.828V172.919L80.438 202.581C78.9742 203.847 78.1377 205.674 78.1377 207.611V232.639C78.1377 235.071 79.4365 237.228 81.4286 238.395L25.3739 263.863C11.9573 269.95 -1.39324 255.246 5.96992 242.489L61.4523 146.427L127.391 32.1935C133.213 22.0787 147.829 22.0787 153.651 32.1935L219.59 146.427L275.072 242.489C282.424 255.235 269.085 269.95 255.668 263.863H255.701Z" fill="#3305C4" stroke="black"/>
<path d="M153.421 240.871C153.597 239.705 153.641 238.549 153.531 237.426C153.124 233.409 150.581 229.711 147.125 227.675C145.1 226.475 142.767 225.848 140.422 225.848C136.482 225.848 132.696 227.653 130.198 230.69C127.831 233.585 127.16 237.228 127.666 240.871C128.173 244.514 129.845 247.662 130.902 251.118C131.75 253.881 132.861 256.588 133.841 259.296C135.646 264.325 137.462 269.344 139.267 274.374L139.366 274.649C139.718 275.64 141.116 275.64 141.468 274.649C143.108 270.093 144.748 265.525 146.399 260.969C147.687 257.392 149.007 253.914 150.394 250.37C151.539 247.453 152.937 244.151 153.421 240.882L153.421 240.871Z" fill="#3305C4" stroke="black"/>
<path d="M345.38 207.512H352.292C357.564 207.512 361.152 210.847 361.152 215.722C361.152 220.598 357.564 223.933 352.292 223.933H345.38V207.523V207.512ZM352.16 221.886C356.221 221.886 358.818 219.398 358.818 215.722C358.818 212.046 356.221 209.559 352.16 209.559H347.724V221.886L352.16 221.886Z" fill="white" stroke="black"/>
<path d="M383.044 221.886V223.922H371.135V207.512H382.713V209.548H373.479V214.589H381.712V216.581H373.479V221.875H383.044V221.886Z" fill="white" stroke="black"/>
<path d="M391.728 222.051L392.597 220.224C393.819 221.324 395.899 222.117 398.012 222.117C400.852 222.117 402.073 221.016 402.073 219.585C402.073 215.579 392.135 218.11 392.135 212.013C392.135 209.481 394.105 207.324 398.419 207.324C400.345 207.324 402.338 207.842 403.691 208.777L402.921 210.648C401.49 209.735 399.872 209.316 398.419 209.316C395.635 209.316 394.435 210.483 394.435 211.914C394.435 215.92 404.374 213.411 404.374 219.442C404.374 221.951 402.36 224.109 398.023 224.109C395.514 224.109 393.048 223.261 391.739 222.051L391.728 222.051Z" fill="white" stroke="black"/>
<path d="M424.625 219.817H415.908L414.103 223.922H411.692L419.122 207.512H421.444L428.895 223.922H426.43L424.625 219.817ZM423.799 217.946L420.255 209.9L416.711 217.946H423.788H423.799Z" fill="white" stroke="black"/>
<path d="M448.684 223.922L445.14 218.881C444.81 218.903 444.458 218.925 444.106 218.925H440.045V223.922H437.7V207.512H444.106C448.376 207.512 450.952 209.669 450.952 213.235C450.952 215.766 449.642 217.593 447.342 218.419L451.238 223.933H448.684V223.922ZM448.618 213.235C448.618 210.891 447.045 209.559 444.051 209.559H440.067V216.944H444.051C447.056 216.944 448.618 215.579 448.618 213.235Z" fill="white" stroke="black"/>
<path d="M472.105 223.922L468.561 218.881C468.231 218.903 467.879 218.925 467.527 218.925H463.465V223.922H461.121V207.512H467.516C471.786 207.512 474.362 209.669 474.362 213.235C474.362 215.766 473.052 217.593 470.752 218.419L474.648 223.933H472.094L472.105 223.922ZM472.039 213.235C472.039 210.891 470.465 209.559 467.472 209.559H463.487V216.944H467.472C470.476 216.944 472.039 215.579 472.039 213.235Z" fill="white" stroke="black"/>
<path d="M483.232 215.722C483.232 210.912 486.942 207.324 491.982 207.324C497.023 207.324 500.677 210.89 500.677 215.722C500.677 220.554 496.968 224.109 491.982 224.109C486.997 224.109 483.232 220.521 483.232 215.722ZM498.333 215.722C498.333 212.09 495.614 209.415 491.982 209.415C488.35 209.415 485.577 212.09 485.577 215.722C485.577 219.354 488.295 222.029 491.982 222.029C495.669 222.029 498.333 219.354 498.333 215.722Z" fill="white" stroke="black"/>
<path d="M510.639 207.512H512.983V221.886H521.865V223.922H510.639V207.512Z" fill="white" stroke="black"/>
<path d="M530.956 207.512H533.3V221.886H542.182V223.922H530.956V207.512Z" fill="white" stroke="black"/>
<path d="M549.622 215.722C549.622 210.912 553.331 207.324 558.372 207.324C563.413 207.324 567.067 210.89 567.067 215.722C567.067 220.554 563.358 224.109 558.372 224.109C553.386 224.109 549.622 220.521 549.622 215.722ZM564.723 215.722C564.723 212.09 562.004 209.415 558.372 209.415C554.74 209.415 551.966 212.09 551.966 215.722C551.966 219.354 554.685 222.029 558.372 222.029C562.059 222.029 564.723 219.354 564.723 215.722Z" fill="white" stroke="black"/>
<path d="M601.726 224.185L599.547 222.006C598.116 223.393 596.245 224.119 594.066 224.119C590.742 224.119 588.32 222.358 588.32 219.849C588.32 217.835 589.465 216.426 592.305 214.808C590.83 213.333 590.334 212.277 590.334 211.055C590.334 208.854 592.073 207.379 594.77 207.379C597.257 207.379 598.853 208.667 598.853 210.802C598.853 212.464 597.874 213.663 595.364 215.094L599.426 219.123C599.866 218.275 600.218 217.296 600.438 216.14L602.243 216.723C601.957 218.176 601.473 219.442 600.812 220.476L603.014 222.678L601.748 224.174L601.726 224.185ZM598.204 220.696L593.537 216.052C591.237 217.34 590.511 218.297 590.511 219.618C590.511 221.192 591.985 222.248 594.187 222.248C595.761 222.248 597.136 221.731 598.193 220.696H598.204ZM592.415 211.011C592.415 211.858 592.745 212.464 594.077 213.829C596.234 212.607 596.938 211.858 596.938 210.824C596.938 209.789 596.168 209.019 594.759 209.019C593.284 209.019 592.415 209.844 592.415 211.011Z" fill="white" stroke="black"/>
<path d="M623.375 222.051L624.245 220.224C625.466 221.324 627.546 222.117 629.66 222.117C632.499 222.117 633.721 221.016 633.721 219.585C633.721 215.579 623.782 218.11 623.782 212.013C623.782 209.481 625.752 207.324 630.067 207.324C631.993 207.324 633.985 207.842 635.339 208.777L634.568 210.648C633.138 209.735 631.52 209.316 630.067 209.316C627.282 209.316 626.083 210.483 626.083 211.914C626.083 215.92 636.021 213.411 636.021 219.442C636.021 221.951 634.007 224.109 629.671 224.109C627.161 224.109 624.696 223.261 623.386 222.051L623.375 222.051Z" fill="white" stroke="black"/>
<path d="M644.474 215.722C644.474 210.912 648.183 207.324 653.224 207.324C658.264 207.324 661.919 210.89 661.919 215.722C661.919 220.554 658.209 224.109 653.224 224.109C648.238 224.109 644.474 220.521 644.474 215.722ZM659.574 215.722C659.574 212.09 656.856 209.415 653.224 209.415C649.592 209.415 646.829 212.09 646.829 215.722C646.829 219.354 649.547 222.029 653.224 222.029C656.9 222.029 659.574 219.354 659.574 215.722Z" fill="white" stroke="black"/>
<path d="M671.891 207.512H674.235V221.886H683.117V223.922H671.891V207.512Z" fill="white" stroke="black"/>
<path d="M691.778 216.845V207.512H694.123V216.746C694.123 220.378 695.785 222.018 698.745 222.018C701.706 222.018 703.39 220.378 703.39 216.746V207.512H705.668V216.845C705.668 221.6 703.071 224.109 698.723 224.109C694.376 224.109 691.778 221.6 691.778 216.845Z" fill="white" stroke="black"/>
<path d="M715.508 215.722C715.508 210.868 719.217 207.324 724.203 207.324C726.734 207.324 728.935 208.194 730.443 209.878L728.924 211.352C727.659 210.021 726.107 209.404 724.302 209.404C720.593 209.404 717.852 212.079 717.852 215.711C717.852 219.343 720.593 222.018 724.302 222.018C726.107 222.018 727.659 221.379 728.924 220.047L730.443 221.522C728.946 223.206 726.734 224.098 724.181 224.098C719.206 224.098 715.508 220.554 715.508 215.711V215.722Z" fill="white" stroke="black"/>
<path d="M740.185 207.512H742.529V223.922H740.185V207.512Z" fill="white" stroke="black"/>
<path d="M752.489 215.722C752.489 210.912 756.198 207.324 761.239 207.324C766.28 207.324 769.934 210.89 769.934 215.722C769.934 220.554 766.225 224.109 761.239 224.109C756.253 224.109 752.489 220.521 752.489 215.722ZM767.59 215.722C767.59 212.09 764.871 209.415 761.239 209.415C757.607 209.415 754.845 212.09 754.845 215.722C754.845 219.354 757.563 222.029 761.239 222.029C764.915 222.029 767.59 219.354 767.59 215.722Z" fill="white" stroke="black"/>
<path d="M794.026 207.512V223.922H792.1L782.25 211.683V223.922H779.905V207.512H781.831L791.682 219.751V207.512H794.026Z" fill="white" stroke="black"/>
<path d="M817.239 221.886V223.922H805.33V207.512H816.909V209.548H807.674V214.589H815.907V216.581H807.674V221.875H817.239V221.886Z" fill="white" stroke="black"/>
<path d="M825.923 222.051L826.792 220.224C828.014 221.324 830.094 222.117 832.207 222.117C835.047 222.117 836.269 221.016 836.269 219.585C836.269 215.579 826.33 218.11 826.33 212.013C826.33 209.481 828.3 207.324 832.615 207.324C834.541 207.324 836.533 207.842 837.887 208.777L837.116 210.648C835.685 209.735 834.067 209.316 832.615 209.316C829.83 209.316 828.63 210.483 828.63 211.914C828.63 215.92 838.569 213.411 838.569 219.442C838.569 221.951 836.555 224.109 832.218 224.109C829.709 224.109 827.244 223.261 825.934 222.051L825.923 222.051Z" fill="white" stroke="black"/>
<path d="M864.313 209.548H858.688V207.512H872.259V209.548H866.635V223.922H864.313V209.548Z" fill="white" stroke="black"/>
<path d="M893.105 221.886V223.922H881.196V207.512H892.775V209.548H883.541V214.589H891.773V216.581H883.541V221.875H893.105V221.886Z" fill="white" stroke="black"/>
<path d="M901.877 215.722C901.877 210.868 905.586 207.324 910.572 207.324C913.103 207.324 915.305 208.194 916.812 209.878L915.294 211.352C914.028 210.021 912.476 209.404 910.671 209.404C906.962 209.404 904.221 212.079 904.221 215.711C904.221 219.343 906.962 222.018 910.671 222.018C912.476 222.018 914.028 221.379 915.294 220.047L916.812 221.522C915.316 223.206 913.103 224.098 910.55 224.098C905.575 224.098 901.877 220.554 901.877 215.711V215.722Z" fill="white" stroke="black"/>
<path d="M940.663 207.512V223.922H938.737L928.886 211.683V223.922H926.542V207.512H928.468L938.319 219.751V207.512H940.663Z" fill="white" stroke="black"/>
<path d="M950.634 215.722C950.634 210.912 954.343 207.324 959.384 207.324C964.425 207.324 968.079 210.89 968.079 215.722C968.079 220.554 964.37 224.109 959.384 224.109C954.398 224.109 950.634 220.521 950.634 215.722ZM965.734 215.722C965.734 212.09 963.016 209.415 959.384 209.415C955.752 209.415 952.989 212.09 952.989 215.722C952.989 219.354 955.708 222.029 959.384 222.029C963.06 222.029 965.734 219.354 965.734 215.722Z" fill="white" stroke="black"/>
<path d="M978.051 207.512H980.395V221.886H989.277V223.922H978.051V207.512Z" fill="white" stroke="black"/>
<path d="M996.717 215.722C996.717 210.912 1000.43 207.324 1005.47 207.324C1010.51 207.324 1014.16 210.89 1014.16 215.722C1014.16 220.554 1010.45 224.109 1005.47 224.109C1000.48 224.109 996.717 220.521 996.717 215.722ZM1011.82 215.722C1011.82 212.09 1009.1 209.415 1005.47 209.415C1001.83 209.415 999.072 212.09 999.072 215.722C999.072 219.354 1001.79 222.029 1005.47 222.029C1009.14 222.029 1011.82 219.354 1011.82 215.722ZM1006.9 203.131H1009.76L1005.82 206.18H1003.71L1006.9 203.131Z" fill="white" stroke="black"/>
<path d="M1035.5 215.624H1037.75V222.029C1036.11 223.416 1033.83 224.12 1031.54 224.12C1026.5 224.12 1022.79 220.576 1022.79 215.734C1022.79 210.891 1026.5 207.336 1031.59 207.336C1034.18 207.336 1036.39 208.205 1037.89 209.867L1036.44 211.32C1035.07 210.01 1033.53 209.416 1031.68 209.416C1027.89 209.416 1025.15 212.069 1025.15 215.723C1025.15 219.377 1027.89 222.029 1031.66 222.029C1033.05 222.029 1034.34 221.721 1035.5 220.973V215.624Z" fill="white" stroke="black"/>
<path d="M1048.61 207.512H1050.96V223.922H1048.61V207.512Z" fill="white" stroke="black"/>
<path d="M1060.93 215.722C1060.93 210.868 1064.64 207.324 1069.62 207.324C1072.15 207.324 1074.36 208.194 1075.86 209.878L1074.34 211.352C1073.08 210.021 1071.53 209.404 1069.72 209.404C1066.01 209.404 1063.27 212.079 1063.27 215.711C1063.27 219.343 1066.01 222.018 1069.72 222.018C1071.53 222.018 1073.08 221.379 1074.34 220.047L1075.86 221.522C1074.37 223.206 1072.15 224.098 1069.6 224.098C1064.63 224.098 1060.93 220.554 1060.93 215.711V215.722Z" fill="white" stroke="black"/>
<path d="M1095.65 219.817H1086.94L1085.13 223.922H1082.72L1090.15 207.512H1092.47L1099.92 223.922H1097.46L1095.65 219.817ZM1094.83 217.946L1091.28 209.9L1087.74 217.946H1094.82H1094.83Z" fill="white" stroke="black"/>
<path d="M1107.24 222.051L1108.11 220.224C1109.33 221.324 1111.41 222.117 1113.53 222.117C1116.37 222.117 1117.59 221.016 1117.59 219.585C1117.59 215.579 1107.65 218.11 1107.65 212.013C1107.65 209.481 1109.62 207.324 1113.93 207.324C1115.86 207.324 1117.85 207.842 1119.21 208.777L1118.44 210.648C1117 209.735 1115.39 209.316 1113.93 209.316C1111.15 209.316 1109.95 210.483 1109.95 211.914C1109.95 215.92 1119.89 213.411 1119.89 219.442C1119.89 221.951 1117.87 224.109 1113.54 224.109C1111.03 224.109 1108.56 223.261 1107.25 222.051L1107.24 222.051Z" fill="white" stroke="black"/>
<path d="M283.107 120.859V157.576H269.14V71.0781H358.609L349.43 82.9759H283.096V109.743H353.822L345.292 120.859H283.096L283.107 120.859Z" fill="#3305C4" stroke="black"/>
<path d="M367.15 157.588V71.0898H458.953L449.774 82.9876H381.117V108.973H454.947L446.935 119.319H381.117V145.822H459.603L450.423 157.588H367.15Z" fill="#3305C4" stroke="black"/>
<path d="M495.296 157.588L503.826 145.823H564.085L524.264 85.8278L475.782 157.588H459.229L515.349 75.2288C517.154 72.5103 520.258 69.9238 524.528 69.9238C528.799 69.9238 531.771 72.2461 533.708 75.2288L589.047 157.588H495.307H495.296Z" fill="#3305C4" stroke="black"/>
<path d="M610.244 89.3168V157.588H597.576V78.7178C597.576 72.5103 601.197 69.9238 605.336 69.9238C607.141 69.9238 609.21 70.4411 611.411 72.6424L680.838 139.098V71.0905H693.638V149.576C693.638 155.783 689.885 158.37 685.747 158.37C683.942 158.37 681.994 157.985 679.804 155.783L610.244 89.3278L610.244 89.3168Z" fill="#3305C4" stroke="black"/>
<path d="M777.562 85.563L746.788 153.57C745.368 156.542 742.65 158.743 738.776 158.743C735.155 158.743 732.183 156.421 730.763 152.151L702.576 71.0788H716.543L740.856 140.638L769.692 75.3382C771.761 70.6826 774.733 69.9121 777.837 69.9121C781.326 69.9121 784.176 70.6936 786.245 75.3382L815.082 140.638L839.263 71.0788H852.965L824.646 152.151C823.094 156.421 820.255 158.743 816.502 158.743C812.748 158.743 810.041 156.674 808.61 153.57L777.584 85.563H777.562Z" fill="#3305C4" stroke="black"/>
<path d="M878.422 157.588L886.952 145.823H947.211L907.39 85.8278L858.908 157.588H842.354L898.475 75.2288C900.28 72.5103 903.384 69.9238 907.654 69.9238C911.925 69.9238 914.897 72.2461 916.834 75.2288L972.173 157.588H878.433H878.422Z" fill="#3305C4" stroke="black"/>
<path d="M1075.61 157.588L1044.7 129.016H995.055V157.588H981.088V117.767H1043.02C1059.18 117.767 1073.79 113.112 1073.79 100.697C1073.79 86.9938 1060.99 82.9876 1043.02 82.9876H896.076L905.255 71.0898H1048.19C1068.37 71.0898 1088.15 78.8492 1088.15 99.9262C1088.15 115.445 1076.77 124.877 1059.18 126.429L1094.61 157.588H1075.6L1075.61 157.588Z" fill="#3305C4" stroke="black"/>
<path d="M1103.68 157.588V71.0898H1195.48L1186.3 82.9876H1117.64V108.973H1191.47L1183.46 119.319H1117.64V145.822H1196.13L1186.95 157.588H1103.68Z" fill="#3305C4" stroke="black"/>
</svg>
